PathFileType	4	(x/y/z)	S09_SL_Cal_T01
DataRate	CameraRate	NumFrames	NumMarkers	Units	OrigDataRate	OrigDataStartFrame	OrigNumFrames
240	240	9	51	mm	240	1201	2400
Frame#	Time	Sternum			R.Acromium			L.Acromium			Top.Head			R.ASIS			L.ASIS			R.PSIS			L.PSIS			R.Great.Tro			L.Great.Tro			R.Iliac.Crest			L.Iliac.Crest			V.Sacral			R.Thigh.Upper.Post			R.Thigh.Lower.Ant			R.Thigh.Lower.Post			R.Thigh.Upper.Ant			R.Knee.Lat			R.Knee.Med			R.Shank.Upper.Post			R.Shank.Lower.Ant			R.Shank.Lower.Post			R.Shank.Upper.Ant			R.Ankle.Lat			R.Ankle.Med			R.Heel.Upper			R.Heel.Med			R.Heel.Lat			R.Toe.Lat			R.Toe.Med			R.Toe.Tip			L.Thigh.Upper.Post			L.Thigh.Lower.Ant			L.Thigh.Lower.Post			L.Thigh.Upper.Ant			L.Knee.Lat			L.Knee.Med			L.Shank.Upper.Post			L.Shank.Lower.Ant			L.Shank.Lower.Post			L.Shank.Upper.Ant			L.Ankle.Lat			L.Ankle.Med			L.Heel.Upper			L.Heel.Med			L.Heel.Lat			L.Toe.Lat			L.Toe.Med			L.Toe.Tip			Cervical.Spine			Back			
		X1	Y1	Z1	X2	Y2	Z2	X3	Y3	Z3	X4	Y4	Z4	X5	Y5	Z5	X6	Y6	Z6	X7	Y7	Z7	X8	Y8	Z8	X9	Y9	Z9	X10	Y10	Z10	X11	Y11	Z11	X12	Y12	Z12	X13	Y13	Z13	X14	Y14	Z14	X15	Y15	Z15	X16	Y16	Z16	X17	Y17	Z17	X18	Y18	Z18	X19	Y19	Z19	X20	Y20	Z20	X21	Y21	Z21	X22	Y22	Z22	X23	Y23	Z23	X24	Y24	Z24	X25	Y25	Z25	X26	Y26	Z26	X27	Y27	Z27	X28	Y28	Z28	X29	Y29	Z29	X30	Y30	Z30	X31	Y31	Z31	X32	Y32	Z32	X33	Y33	Z33	X34	Y34	Z34	X35	Y35	Z35	X36	Y36	Z36	X37	Y37	Z37	X38	Y38	Z38	X39	Y39	Z39	X40	Y40	Z40	X41	Y41	Z41	X42	Y42	Z42	X43	Y43	Z43	X44	Y44	Z44	X45	Y45	Z45	X46	Y46	Z46	X47	Y47	Z47	X48	Y48	Z48	X49	Y49	Z49	X50	Y50	Z50	X51	Y51	Z51	

1201	5	582.64	1200.9	291.8	450.17	1454.9	441.93	449.84	1449.5	126.92	517.07	1749.2	287.23	544.58	1035.3	399.2	532.73	1032.1	152.77	322.02	1061.8	331.05	324	1062.6	241.41	461.31	951.99	475.26	451.5	947.07	90.823	454.62	1115.4	445.8	424.28	1126.9	121.98	303.5	1027.5	284.36	428.22	710.08	465.6	480.43	598.57	425.84	406.56	619.96	445.62	494.14	686.36	448.09	444.36	525.81	419.74	423.69	511.14	302.15	363.7	354.59	439.26	432.26	295.07	425.71	360.97	278.29	430.18	428.33	368.63	436.26	392.39	94.094	411.16	422.98	105.39	328.1	332.24	76.539	361.74	342.72	44.727	332.62	333.94	46.814	397.22	492.67	39.922	453.83	542.54	46.084	348.02	588.99	60.531	395.46	367.77	702.15	121.05	436.19	596.24	112.04	374.63	613.05	125.42	434.21	684.73	96.168	414.69	516.19	118.31	426.24	515.58	253.86	366.62	382.85	101.73	432.84	294.95	112.87	369.58	305.77	105.37	429.2	372.91	109.92	404.19	106.2	126.25	417.8	96.775	217.67	334.91	69.924	172.98	345.98	45.922	206.48	337.64	42.376	144.9	512.25	43.794	95.788	545.9	44.208	205.31	599.11	61.334	148.94	381.08	1501.5	295.52	319.97	1243.1	281.7
1202	5.0042	582.68	1200.9	291.8	450.19	1454.9	441.94	449.86	1449.5	126.93	517.12	1749.2	287.26	544.62	1035.3	399.2	532.77	1032.1	152.77	322.06	1061.8	331.06	324.04	1062.6	241.42	461.35	951.98	475.27	451.53	947.07	90.825	454.67	1115.4	445.81	424.32	1126.9	121.99	303.54	1027.5	284.37	428.25	710.08	465.6	480.45	598.57	425.84	406.59	619.96	445.62	494.16	686.35	448.09	444.38	525.81	419.74	423.7	511.14	302.15	363.71	354.59	439.26	432.27	295.07	425.71	360.97	278.29	430.18	428.34	368.63	436.26	392.39	94.095	411.16	422.98	105.39	328.1	332.23	76.545	361.74	342.72	44.727	332.62	333.94	46.815	397.22	492.67	39.921	453.83	542.55	46.093	348.01	588.99	60.527	395.46	367.8	702.15	121.05	436.22	596.25	112.04	374.66	613.05	125.42	434.24	684.73	96.171	414.72	516.2	118.31	426.29	515.57	253.86	366.64	382.85	101.73	432.87	294.95	112.87	369.6	305.78	105.37	429.23	372.91	109.92	404.19	106.2	126.25	417.8	96.774	217.67	334.91	69.926	172.98	345.98	45.923	206.48	337.64	42.378	144.91	512.25	43.794	95.788	545.9	44.205	205.3	599.11	61.328	148.94	381.11	1501.5	295.52	320.01	1243.1	281.7
1203	5.0083	582.72	1200.9	291.81	450.22	1454.9	441.94	449.88	1449.5	126.93	517.17	1749.2	287.29	544.65	1035.3	399.2	532.81	1032.1	152.78	322.1	1061.8	331.06	324.08	1062.6	241.42	461.4	951.98	475.27	451.57	947.07	90.828	454.71	1115.4	445.81	424.36	1126.9	121.99	303.58	1027.5	284.37	428.27	710.08	465.6	480.46	598.56	425.84	406.61	619.96	445.62	494.18	686.35	448.09	444.4	525.81	419.74	423.72	511.14	302.15	363.72	354.6	439.26	432.28	295.07	425.71	360.98	278.29	430.18	428.36	368.63	436.26	392.4	94.097	411.16	422.98	105.39	328.09	332.23	76.55	361.74	342.72	44.728	332.62	333.94	46.816	397.22	492.67	39.921	453.83	542.56	46.102	348.01	588.99	60.524	395.46	367.83	702.16	121.05	436.25	596.25	112.04	374.69	613.06	125.43	434.27	684.73	96.175	414.75	516.2	118.32	426.33	515.56	253.86	366.67	382.85	101.73	432.89	294.95	112.88	369.62	305.78	105.37	429.25	372.91	109.92	404.19	106.2	126.25	417.8	96.773	217.67	334.92	69.928	172.98	345.98	45.923	206.48	337.64	42.38	144.91	512.25	43.794	95.788	545.9	44.201	205.3	599.12	61.322	148.94	381.13	1501.5	295.53	320.04	1243.1	281.71
1204	5.0125	582.75	1200.9	291.81	450.25	1454.9	441.95	449.9	1449.5	126.94	517.23	1749.2	287.32	544.69	1035.3	399.2	532.84	1032.1	152.78	322.14	1061.8	331.07	324.12	1062.6	241.43	461.44	951.97	475.27	451.61	947.07	90.831	454.75	1115.4	445.82	424.4	1126.9	121.99	303.62	1027.5	284.38	428.3	710.08	465.6	480.48	598.56	425.84	406.63	619.96	445.62	494.21	686.34	448.09	444.41	525.81	419.74	423.73	511.13	302.15	363.73	354.6	439.26	432.29	295.07	425.71	360.99	278.29	430.18	428.37	368.63	436.26	392.4	94.098	411.16	422.99	105.39	328.09	332.23	76.556	361.74	342.72	44.728	332.62	333.95	46.817	397.22	492.67	39.921	453.83	542.57	46.11	348	588.99	60.52	395.46	367.86	702.16	121.05	436.28	596.25	112.05	374.72	613.06	125.43	434.3	684.73	96.178	414.77	516.21	118.32	426.37	515.56	253.87	366.69	382.86	101.72	432.91	294.95	112.88	369.64	305.78	105.37	429.28	372.91	109.92	404.2	106.21	126.25	417.8	96.771	217.67	334.92	69.931	172.98	345.98	45.924	206.48	337.65	42.382	144.91	512.25	43.793	95.788	545.9	44.197	205.3	599.12	61.316	148.94	381.15	1501.5	295.53	320.08	1243.1	281.71
1205	5.0167	582.79	1200.9	291.81	450.28	1454.9	441.96	449.93	1449.5	126.94	517.28	1749.2	287.35	544.73	1035.2	399.2	532.88	1032.1	152.78	322.19	1061.8	331.07	324.16	1062.6	241.44	461.49	951.97	475.27	451.64	947.07	90.833	454.79	1115.4	445.82	424.43	1126.9	122	303.65	1027.6	284.39	428.33	710.08	465.6	480.5	598.55	425.84	406.65	619.96	445.62	494.23	686.34	448.09	444.43	525.8	419.74	423.74	511.13	302.15	363.74	354.6	439.26	432.3	295.07	425.71	361	278.29	430.19	428.38	368.63	436.26	392.4	94.099	411.16	422.99	105.39	328.09	332.22	76.561	361.73	342.72	44.728	332.62	333.95	46.818	397.22	492.67	39.92	453.83	542.57	46.117	348	588.99	60.517	395.46	367.9	702.16	121.05	436.31	596.25	112.05	374.75	613.06	125.43	434.33	684.73	96.182	414.8	516.21	118.32	426.41	515.55	253.87	366.71	382.86	101.72	432.93	294.95	112.88	369.66	305.78	105.37	429.3	372.91	109.92	404.2	106.21	126.25	417.8	96.769	217.67	334.92	69.934	172.98	345.98	45.924	206.48	337.65	42.385	144.91	512.25	43.793	95.788	545.9	44.194	205.3	599.12	61.31	148.94	381.18	1501.5	295.54	320.11	1243.1	281.72
1206	5.0208	582.82	1200.9	291.81	450.3	1454.8	441.97	449.95	1449.5	126.95	517.33	1749.2	287.38	544.77	1035.2	399.21	532.91	1032.1	152.78	322.23	1061.8	331.08	324.2	1062.6	241.44	461.53	951.96	475.28	451.68	947.07	90.836	454.84	1115.4	445.83	424.47	1126.9	122	303.69	1027.6	284.4	428.36	710.08	465.6	480.51	598.55	425.84	406.67	619.96	445.62	494.26	686.34	448.09	444.44	525.8	419.74	423.75	511.13	302.16	363.74	354.6	439.27	432.31	295.07	425.71	361	278.3	430.19	428.39	368.62	436.27	392.4	94.1	411.15	422.99	105.39	328.09	332.22	76.566	361.73	342.72	44.728	332.62	333.95	46.819	397.22	492.67	39.92	453.82	542.58	46.123	347.99	588.99	60.513	395.47	367.93	702.16	121.05	436.34	596.26	112.05	374.78	613.07	125.43	434.36	684.73	96.185	414.83	516.21	118.32	426.45	515.55	253.87	366.73	382.86	101.72	432.95	294.94	112.89	369.68	305.78	105.37	429.32	372.91	109.92	404.2	106.21	126.26	417.81	96.767	217.68	334.92	69.936	172.99	345.98	45.925	206.49	337.65	42.387	144.91	512.26	43.793	95.788	545.9	44.19	205.3	599.12	61.304	148.94	381.2	1501.5	295.55	320.15	1243.1	281.72
1207	5.025	582.86	1200.9	291.81	450.33	1454.8	441.97	449.97	1449.5	126.95	517.38	1749.2	287.41	544.81	1035.2	399.21	532.95	1032.1	152.79	322.27	1061.8	331.08	324.24	1062.6	241.45	461.58	951.95	475.28	451.71	947.08	90.839	454.88	1115.4	445.83	424.51	1126.9	122.01	303.72	1027.6	284.4	428.38	710.08	465.6	480.53	598.55	425.84	406.69	619.97	445.62	494.28	686.34	448.1	444.45	525.8	419.74	423.76	511.13	302.16	363.75	354.61	439.27	432.32	295.07	425.7	361.01	278.3	430.19	428.4	368.62	436.27	392.4	94.1	411.15	422.99	105.39	328.09	332.22	76.572	361.73	342.72	44.729	332.62	333.95	46.82	397.22	492.67	39.92	453.82	542.59	46.129	347.99	588.99	60.51	395.47	367.96	702.17	121.06	436.36	596.26	112.05	374.81	613.07	125.43	434.39	684.73	96.189	414.86	516.22	118.33	426.49	515.54	253.87	366.76	382.86	101.72	432.97	294.94	112.89	369.7	305.79	105.37	429.34	372.91	109.93	404.21	106.21	126.26	417.81	96.764	217.68	334.93	69.94	172.99	345.99	45.925	206.49	337.65	42.389	144.91	512.26	43.793	95.788	545.9	44.187	205.3	599.12	61.298	148.94	381.23	1501.5	295.55	320.18	1243.1	281.73
1208	5.0292	582.89	1200.9	291.81	450.36	1454.8	441.98	449.99	1449.5	126.96	517.43	1749.2	287.44	544.84	1035.2	399.21	532.98	1032.1	152.79	322.31	1061.8	331.08	324.28	1062.6	241.45	461.62	951.95	475.28	451.75	947.08	90.842	454.92	1115.4	445.84	424.55	1126.9	122.01	303.76	1027.6	284.41	428.41	710.08	465.61	480.55	598.54	425.84	406.71	619.97	445.63	494.3	686.33	448.1	444.47	525.8	419.75	423.77	511.13	302.16	363.76	354.61	439.27	432.33	295.07	425.7	361.02	278.3	430.19	428.41	368.62	436.27	392.4	94.101	411.15	422.99	105.39	328.09	332.21	76.576	361.73	342.73	44.729	332.62	333.95	46.821	397.22	492.67	39.921	453.82	542.6	46.133	347.99	589	60.506	395.47	367.99	702.17	121.06	436.39	596.26	112.05	374.84	613.07	125.43	434.42	684.73	96.193	414.88	516.22	118.33	426.52	515.54	253.87	366.78	382.86	101.72	432.99	294.94	112.89	369.72	305.79	105.37	429.37	372.91	109.93	404.21	106.21	126.26	417.81	96.76	217.68	334.93	69.943	172.99	345.99	45.926	206.49	337.65	42.391	144.91	512.26	43.793	95.788	545.91	44.184	205.3	599.12	61.293	148.94	381.25	1501.5	295.56	320.22	1243.1	281.73
1209	5.0333	582.93	1200.9	291.82	450.39	1454.8	441.99	450.01	1449.5	126.96	517.48	1749.2	287.47	544.88	1035.2	399.21	533.02	1032.1	152.79	322.36	1061.8	331.09	324.32	1062.6	241.46	461.66	951.94	475.28	451.78	947.08	90.846	454.96	1115.4	445.84	424.59	1126.9	122.01	303.8	1027.6	284.42	428.44	710.08	465.61	480.56	598.54	425.84	406.73	619.97	445.63	494.33	686.33	448.1	444.48	525.79	419.75	423.78	511.13	302.17	363.77	354.61	439.28	432.34	295.07	425.7	361.03	278.3	430.19	428.42	368.62	436.27	392.4	94.102	411.15	423	105.39	328.09	332.21	76.58	361.73	342.73	44.73	332.62	333.95	46.823	397.22	492.67	39.921	453.82	542.6	46.136	347.98	589	60.502	395.47	368.02	702.17	121.06	436.42	596.26	112.06	374.87	613.08	125.42	434.45	684.72	96.196	414.91	516.22	118.33	426.56	515.54	253.88	366.8	382.87	101.72	433.01	294.94	112.9	369.74	305.79	105.37	429.39	372.91	109.93	404.21	106.21	126.26	417.81	96.755	217.68	334.93	69.946	172.99	345.99	45.927	206.49	337.65	42.394	144.92	512.26	43.793	95.788	545.91	44.18	205.3	599.13	61.287	148.94	381.28	1501.5	295.57	320.26	1243	281.74
